<svg height="29" viewBox="0 0 67 29" width="67" xmlns="http://www.w3.org/2000/svg"><path d="m11.26 0v2.98h-6.03q-1.05 0-1.47.4-.42.41-.42 1.42v2.38h6.26l-.24 2.97h-6.02v6.94h-3.34v-13.61q0-1.9.83-2.69.83-.79 2.84-.79zm12.93 10.97h-7.99q0 1.87.59 2.73.59.87 2.36.87 1.15 0 1.71-.73.55-.74.55-1.41h2.81q0 2.57-1.38 3.77-1.38 1.2-3.65 1.2-2.27 0-3.52-.65-2.57-1.32-2.57-7.01 0-3.38 1.47-4.95 1.46-1.57 4.46-1.57 5.21 0 5.21 5.78 0 .62-.05 1.97zm-7.92-2.14h5.14q0-1.58-.6-2.3-.6-.72-1.84-.72-1.23 0-1.97.73-.73.73-.73 2.29zm23.93-.36.02 1.85q-.09 1.75-.43 2.95-.33 1.2-1.32 2.19-1.63 1.63-4.75 1.63-3.67 0-5.04-.97-1.37-.98-1.37-3.52v-12.6h6.65q2.88 0 4.51 1.63 1.32 1.32 1.56 3.22.17 1.34.17 3.62zm-4.06 4.59q.46-.56.59-1.53.13-.97.13-3.03 0-2.07-.13-2.99-.13-.93-.59-1.48-.86-1.05-2.49-1.05h-3v9.45q0 .96.65 1.32.64.36 2.31.36 1.67 0 2.53-1.05zm17.02-2.09h-7.99q0 1.87.59 2.73.58.87 2.36.87 1.15 0 1.7-.73.56-.74.56-1.41h2.8q0 2.57-1.38 3.77-1.38 1.2-3.64 1.2-2.27 0-3.52-.65-2.57-1.32-2.57-7.01 0-3.38 1.47-4.95 1.46-1.57 4.46-1.57 5.21 0 5.21 5.78 0 .62-.05 1.97zm-7.92-2.14h5.14q0-1.58-.6-2.3-.6-.72-1.84-.72-1.24 0-1.97.73-.73.73-.73 2.29zm17.5-5.45h3.28l-4.58 13.71h-2.45l-4.61-13.71h3.29l2.55 8.93z" fill="#5e00ff"/><path d="m19.8072 27.4h26.4096" stroke="#5e00ff" stroke-linecap="round"/></svg>